<?xml version="1.0" encoding="utf-8"?>
<!-- Uploaded to: SVG Repo, www.svgrepo.com, Generator: SVG Repo Mixer Tools -->
<svg width="800px" height="800px" viewBox="0 0 1024 1024" class="icon"  version="1.1" xmlns="http://www.w3.org/2000/svg"><path d="M294.613731 1002.666458a21.333329 21.333329 0 0 1-21.333329-19.839996L215.040414 224.853286h593.919877L750.720303 982.826462a21.333329 21.333329 0 0 1-21.333329 19.839996z" fill="#F05071" /><path d="M785.920295 246.186615L729.386974 981.333129H294.613731L238.080409 246.186615h547.839886m46.079991-42.666657h-639.999867l60.159988 781.01317a42.666658 42.666658 0 0 0 42.666657 39.466659H729.386974a42.666658 42.666658 0 0 0 42.666658-39.466659l59.946654-781.01317z" fill="#5C2D51" /><path d="M215.680414 182.186629l14.719997-144.63997A18.13333 18.13333 0 0 1 248.533741 21.333329h526.933223a18.13333 18.13333 0 0 1 18.13333 16.21333l14.719997 144.63997z" fill="#F05071" /><path d="M772.693631 42.666658l12.159998 118.186642H239.360409L251.307073 42.666658h521.386558m2.773333-42.666658H248.533741a39.466658 39.466658 0 0 0-39.253326 35.413326l-17.279996 168.106632h639.999867l-17.279997-168.106632A39.466658 39.466658 0 0 0 775.466964 0z" fill="#5C2D51" /><path d="M176.853756 129.70664l670.293193 0 0 119.039975-670.293193 0 0-119.039975Z" fill="#FDCA89" /><path d="M825.81362 151.039969v76.373317H198.187084V151.039969h627.626536m13.866664-42.666658H184.320421A28.799994 28.799994 0 0 0 155.520427 137.386638v104.106645a28.799994 28.799994 0 0 0 28.799994 28.799994h655.359863a28.799994 28.799994 0 0 0 28.799994-28.799994V137.386638a28.799994 28.799994 0 0 0-28.799994-28.799994z" fill="#5C2D51" /><path d="M264.533737 868.053152L226.347079 370.773256h571.519881l-38.399992 497.279896H264.533737z" fill="#FDCA89" /><path d="M774.186964 392.106585l-34.346659 454.613239H283.5204L249.387074 392.106585H774.186964m46.079991-42.666658H203.307083l41.386658 539.946554h534.613222l41.599992-539.946554z" fill="#5C2D51" /></svg>